<?xml version="1.0" encoding="utf-8"?>
<!-- Generator: Adobe Illustrator 16.0.0, SVG Export Plug-In . SVG Version: 6.00 Build 0)  -->
<!DOCTYPE svg PUBLIC "-//W3C//DTD SVG 1.1//EN" "http://www.w3.org/Graphics/SVG/1.1/DTD/svg11.dtd">
<svg version="1.1" xmlns="http://www.w3.org/2000/svg" xmlns:xlink="http://www.w3.org/1999/xlink" x="0px" y="0px" width="64px"
	 height="64px" viewBox="123.905 -3.655 64 64" enable-background="new 123.905 -3.655 64 64" xml:space="preserve">
<g id="Layer_5">
	<path fill="#706F6A" d="M151.422,56.201h30.907c0.871,0,1.575-0.704,1.575-1.575c0-0.87-0.704-1.575-1.575-1.575h-29.907"/>
	<path fill="#706F6A" d="M152.422,53.051h-18.268V7.376c0-0.87-0.705-1.575-1.575-1.575c-0.87,0-1.575,0.705-1.575,1.575v48.825
		h21.751"/>
	<rect x="138.879" y="40.451" fill="#0484AB" width="9.45" height="12.6"/>
	<rect x="154.304" y="31.788" fill="#0484AB" width="9.451" height="21.263"/>
	<rect x="169.73" y="14.464" fill="#0484AB" width="9.45" height="38.587"/>
</g>
<g id="Layer_4" display="none">
	
		<image display="inline" overflow="visible" width="512" height="512" xlink:href="iconfinder_Artboard_12_5964541.png"  transform="matrix(0.9999 0 0 0.9999 -74 -160.3093)">
	</image>
</g>
<g id="Layer_1" display="none">
	<title></title>
	<circle display="inline" fill="#E8C4C1" cx="170.108" cy="13.769" r="9"/>
	<rect x="127.56" y="0" width="56.691" height="56.689"/>
</g>
<g id="Stekels" display="none">
	<path display="inline" fill="#DB4952" d="M163.504,4.871c0.506-0.376,0.73-0.474,0.82-0.442c0.088,0.031,0.062,0.19-0.054,0.442
		l-0.146,0.342c-0.053,0.102-0.096,0.208-0.129,0.318c-0.043,0.116-0.03,0.245,0.035,0.35c0.132,0.366,0.287,0.723,0.465,1.067
		c0.169,0.332,0.364,0.648,0.585,0.948c0.212,0.295,0.47,0.555,0.762,0.771c0.267,0.184,0.334,0.549,0.15,0.815
		c-0.183,0.267-0.548,0.334-0.815,0.15c-0.059-0.04-0.11-0.091-0.15-0.15c-0.215-0.293-0.475-0.55-0.77-0.762
		c-0.3-0.221-0.617-0.416-0.948-0.585c-0.345-0.178-0.702-0.334-1.067-0.465c-0.105-0.065-0.234-0.079-0.35-0.036
		c-0.11,0.033-0.217,0.076-0.319,0.129l-0.341,0.146c-0.244,0.115-0.385,0.128-0.443,0.053c-0.057-0.075,0.059-0.314,0.443-0.819
		C161.882,6.286,162.647,5.522,163.504,4.871z"/>
	<path display="inline" fill="#FF7F1C" d="M171.823,2.822c0.619,0.093,0.85,0.182,0.885,0.27c0.036,0.089-0.092,0.182-0.345,0.274
		l-0.346,0.134c-0.109,0.038-0.216,0.084-0.319,0.137c-0.182,0.089-0.168,0.182-0.221,0.271c-0.171,0.352-0.318,0.714-0.443,1.085
		c-0.115,0.354-0.201,0.717-0.257,1.085c-0.056,0.359-0.056,0.726,0,1.085c0.058,0.318-0.153,0.622-0.472,0.68
		s-0.622-0.153-0.68-0.472l0,0c-0.014-0.068-0.014-0.139,0-0.208c0.058-0.359,0.058-0.726,0-1.085
		c-0.052-0.369-0.138-0.732-0.257-1.085c-0.122-0.372-0.271-0.734-0.442-1.085c-0.049-0.089-0.041-0.182-0.223-0.271
		c-0.102-0.055-0.208-0.101-0.318-0.137l-0.341-0.134c-0.257-0.093-0.363-0.181-0.346-0.274c0.019-0.093,0.262-0.177,0.886-0.27
		C169.659,2.671,170.749,2.671,171.823,2.822z"/>
	<path display="inline" fill="#FF7F1C" d="M181.149,15.585c-0.092,0.62-0.182,0.851-0.27,0.886s-0.182-0.093-0.274-0.346
		l-0.134-0.345c-0.039-0.109-0.086-0.216-0.137-0.319c-0.088-0.182-0.182-0.168-0.27-0.222c-0.353-0.17-0.715-0.318-1.086-0.442
		c-0.354-0.115-0.717-0.201-1.084-0.257c-0.36-0.056-0.727-0.056-1.086,0c-0.318,0.058-0.622-0.154-0.68-0.472
		c-0.058-0.318,0.154-0.623,0.472-0.68c0.069-0.014,0.14-0.014,0.208,0c0.359,0.058,0.726,0.058,1.086,0
		c0.368-0.053,0.731-0.139,1.084-0.257c0.372-0.123,0.734-0.271,1.086-0.443c0.088-0.049,0.182-0.04,0.27-0.222
		c0.053-0.103,0.099-0.209,0.137-0.318l0.134-0.341c0.093-0.257,0.181-0.363,0.274-0.346c0.093,0.018,0.178,0.261,0.27,0.886
		C181.299,13.422,181.299,14.511,181.149,15.585z"/>
	<path display="inline" fill="#FF7F1C" d="M159.058,12.161c0.093-0.62,0.182-0.85,0.271-0.886c0.088-0.035,0.182,0.089,0.274,0.346
		l0.133,0.346c0.038,0.109,0.085,0.216,0.138,0.318c0.088,0.182,0.182,0.169,0.27,0.222c0.354,0.169,0.715,0.316,1.086,0.443
		c0.354,0.115,0.717,0.199,1.084,0.252c0.359,0.058,0.727,0.058,1.086,0c0.317-0.058,0.622,0.154,0.68,0.472
		c0.057,0.318-0.154,0.622-0.473,0.68c-0.068,0.014-0.139,0.014-0.207,0c-0.359-0.058-0.727-0.058-1.086,0
		c-0.371,0.053-0.738,0.141-1.094,0.262c-0.371,0.122-0.734,0.271-1.085,0.442c-0.089,0.049-0.182,0.036-0.271,0.222
		c-0.055,0.103-0.1,0.209-0.137,0.319l-0.133,0.341c-0.094,0.257-0.182,0.363-0.275,0.346c-0.092-0.018-0.177-0.262-0.27-0.886
		C158.902,14.324,158.905,13.236,159.058,12.161z"/>
	<path display="inline" fill="#FF7F1C" d="M168.399,24.926c-0.62-0.093-0.851-0.182-0.887-0.274
		c-0.035-0.094,0.09-0.178,0.346-0.271l0.346-0.133c0.109-0.04,0.215-0.086,0.319-0.138c0.181-0.088,0.168-0.182,0.222-0.27
		c0.168-0.353,0.316-0.716,0.442-1.085c0.116-0.354,0.2-0.717,0.253-1.086c0.057-0.359,0.057-0.726,0-1.085
		c-0.059-0.317,0.153-0.622,0.471-0.68c0.318-0.058,0.623,0.154,0.68,0.472c0.014,0.069,0.014,0.14,0,0.208
		c-0.057,0.359-0.057,0.726,0,1.085c0.053,0.369,0.139,0.732,0.258,1.086c0.122,0.371,0.27,0.733,0.443,1.085
		c0.048,0.088,0.035,0.182,0.221,0.27c0.104,0.053,0.209,0.099,0.318,0.138l0.342,0.133c0.257,0.093,0.363,0.182,0.346,0.271
		c-0.018,0.088-0.262,0.182-0.887,0.274C170.559,25.075,169.471,25.075,168.399,24.926z"/>
	<path display="inline" fill="#FF7F1C" d="M179.134,7.268c0.376,0.505,0.474,0.73,0.442,0.819c-0.03,0.089-0.189,0.062-0.442-0.053
		l-0.341-0.146c-0.102-0.053-0.209-0.096-0.318-0.129c-0.116-0.043-0.246-0.029-0.351,0.036c-0.364,0.124-0.722,0.272-1.067,0.442
		c-0.332,0.18-0.649,0.388-0.947,0.62c-0.295,0.213-0.555,0.47-0.771,0.762c-0.184,0.267-0.548,0.334-0.814,0.15
		c-0.267-0.183-0.334-0.548-0.15-0.814c0.039-0.06,0.091-0.111,0.15-0.15c0.293-0.216,0.549-0.476,0.762-0.771
		c0.221-0.3,0.416-0.617,0.584-0.948c0.172-0.346,0.319-0.702,0.443-1.067c0.065-0.104,0.078-0.234,0.035-0.35
		c-0.032-0.11-0.075-0.217-0.128-0.319l-0.146-0.341c-0.115-0.243-0.129-0.386-0.054-0.442c0.075-0.058,0.314,0.057,0.819,0.442
		C177.706,5.654,178.477,6.413,179.134,7.268z"/>
	<path display="inline" fill="#FF7F1C" d="M161.086,20.479c-0.377-0.505-0.474-0.73-0.443-0.819
		c0.031-0.088,0.191-0.062,0.443,0.054l0.342,0.146c0.102,0.052,0.208,0.096,0.318,0.128c0.115,0.043,0.245,0.03,0.35-0.035
		c0.365-0.125,0.722-0.272,1.067-0.443c0.331-0.168,0.648-0.364,0.948-0.584c0.295-0.214,0.555-0.473,0.771-0.767
		c0.183-0.267,0.548-0.334,0.815-0.15c0.266,0.184,0.334,0.548,0.15,0.814l0,0c-0.04,0.06-0.092,0.111-0.15,0.151
		c-0.293,0.215-0.551,0.476-0.762,0.771c-0.221,0.299-0.416,0.616-0.586,0.947c-0.17,0.346-0.318,0.702-0.442,1.067
		c-0.065,0.104-0.079,0.234-0.035,0.35c0.032,0.11,0.075,0.217,0.128,0.319l0.146,0.341c0.115,0.244,0.129,0.386,0.053,0.443
		c-0.074,0.058-0.314-0.058-0.818-0.443C162.514,22.115,161.742,21.345,161.086,20.479z"/>
	<path display="inline" fill="#FF7F1C" d="M176.721,22.898c-0.506,0.376-0.731,0.474-0.82,0.442
		c-0.088-0.031-0.062-0.19,0.054-0.442l0.146-0.342c0.053-0.102,0.096-0.208,0.129-0.318c0.043-0.116,0.029-0.245-0.035-0.35
		c-0.125-0.365-0.272-0.722-0.443-1.067c-0.168-0.332-0.363-0.648-0.584-0.948c-0.213-0.295-0.47-0.555-0.762-0.771
		c-0.268-0.184-0.334-0.548-0.15-0.814c0.183-0.267,0.548-0.334,0.814-0.151c0.06,0.04,0.111,0.091,0.15,0.151
		c0.208,0.288,0.459,0.544,0.744,0.757c0.299,0.221,0.616,0.416,0.947,0.585c0.346,0.178,0.702,0.333,1.068,0.465
		c0.104,0.065,0.233,0.078,0.35,0.035c0.109-0.032,0.217-0.075,0.318-0.128l0.342-0.146c0.243-0.119,0.385-0.129,0.442-0.053
		c0.058,0.075-0.058,0.314-0.442,0.819C178.34,21.48,177.577,22.246,176.721,22.898z"/>
</g>
<g id="Virus_Groot">
	<g>
		<circle fill="#E8C4C1" cx="151.032" cy="21.479" r="12.25"/>
		<path fill="#DB4952" d="M153.359,6.574c0.307,0.037,0.609,0.099,0.906,0.183c0.181,0.063,0.281,0.125,0.303,0.187
			c0.027,0.124-0.14,0.244-0.455,0.388c-0.313,0.144-0.699,0.246-0.929,0.37s-0.229,0.245-0.291,0.389
			c-0.226,0.479-0.418,0.972-0.579,1.476c-0.16,0.482-0.276,0.976-0.35,1.477c-0.076,0.488-0.076,0.985,0,1.473
			c0.097,0.429-0.174,0.856-0.603,0.952c-0.429,0.097-0.855-0.173-0.952-0.602c-0.025-0.115-0.025-0.234,0-0.35
			c0.076-0.488,0.076-0.985,0-1.473c-0.073-0.501-0.191-0.995-0.35-1.477c-0.17-0.521-0.374-1.032-0.61-1.526
			c-0.065-0.125-0.063-0.246-0.291-0.39c-0.229-0.144-0.618-0.245-0.929-0.369c-0.312-0.125-0.482-0.245-0.455-0.389
			c0.019-0.062,0.119-0.124,0.303-0.186c0.297-0.084,0.6-0.146,0.905-0.183C150.438,6.344,151.91,6.362,153.359,6.574z"/>
		<path fill="#DB4952" d="M166.076,23.947c-0.035,0.308-0.098,0.61-0.187,0.906c-0.062,0.183-0.12,0.283-0.184,0.303
			c-0.123,0.027-0.248-0.141-0.388-0.455s-0.248-0.699-0.369-0.929c-0.12-0.229-0.245-0.225-0.389-0.292
			c-0.469-0.222-0.95-0.416-1.442-0.579c-0.481-0.158-0.975-0.275-1.476-0.35c-0.49-0.076-0.989-0.076-1.478,0
			c-0.44,0.023-0.813-0.314-0.837-0.754c-0.02-0.361,0.208-0.689,0.553-0.8c0.094-0.016,0.19-0.016,0.284,0
			c0.488,0.076,0.987,0.076,1.478,0c0.501-0.074,0.994-0.191,1.476-0.35c0.504-0.161,0.998-0.355,1.478-0.579
			c0.123-0.062,0.245-0.062,0.389-0.292c0.144-0.229,0.244-0.618,0.369-0.929c0.124-0.312,0.245-0.482,0.389-0.456
			c0.062,0.024,0.12,0.121,0.182,0.304c0.089,0.296,0.151,0.599,0.187,0.906C166.292,21.045,166.281,22.506,166.076,23.947z"/>
		<path fill="#DB4952" d="M148.703,36.662c-0.306-0.037-0.608-0.098-0.904-0.182c-0.187-0.063-0.284-0.125-0.304-0.187
			c-0.03-0.125,0.14-0.245,0.455-0.389c0.314-0.145,0.699-0.246,0.925-0.39c0.226-0.143,0.229-0.244,0.295-0.389
			c0.224-0.479,0.417-0.974,0.579-1.476c0.158-0.482,0.274-0.977,0.347-1.478c0.078-0.487,0.078-0.985,0-1.473
			c-0.08-0.43,0.204-0.842,0.633-0.921c0.43-0.079,0.842,0.204,0.922,0.634c0.019,0.094,0.019,0.192,0,0.287
			c-0.078,0.487-0.078,0.985,0,1.473c0.072,0.501,0.188,0.995,0.345,1.478c0.163,0.502,0.356,0.996,0.579,1.476
			c0.067,0.125,0.067,0.246,0.296,0.389c0.229,0.144,0.618,0.245,0.925,0.39c0.307,0.144,0.485,0.244,0.455,0.389
			c-0.02,0.062-0.117,0.124-0.303,0.187c-0.298,0.084-0.6,0.145-0.906,0.182C151.602,36.857,150.143,36.857,148.703,36.662z"/>
		<path fill="#DB4952" d="M135.987,19.311c0.035-0.307,0.096-0.609,0.183-0.906c0.062-0.182,0.125-0.283,0.186-0.303
			c0.121-0.027,0.245,0.141,0.389,0.455c0.097,0.309,0.207,0.611,0.334,0.909c0.12,0.229,0.245,0.226,0.389,0.291
			c0.479,0.224,0.971,0.417,1.473,0.58c0.481,0.158,0.976,0.274,1.477,0.35c0.49,0.076,0.988,0.076,1.477,0
			c0.419-0.134,0.867,0.099,1.001,0.518c0.134,0.418-0.098,0.867-0.518,1c-0.063,0.021-0.129,0.033-0.195,0.036
			c-0.096,0.016-0.193,0.016-0.288,0c-0.489-0.075-0.987-0.075-1.477,0c-0.501,0.074-0.995,0.192-1.477,0.35
			c-0.504,0.17-0.995,0.373-1.473,0.607c-0.125,0.062-0.249,0.062-0.389,0.291c-0.139,0.304-0.262,0.614-0.37,0.929
			c-0.124,0.314-0.249,0.481-0.388,0.455c-0.063-0.024-0.124-0.121-0.187-0.303c-0.087-0.298-0.147-0.6-0.183-0.906
			C135.768,22.218,135.779,20.753,135.987,19.311z"/>
		<path fill="#DB4952" d="M163.312,12.626c0.195,0.244,0.366,0.503,0.514,0.777c0.086,0.171,0.112,0.288,0.082,0.342
			c-0.032,0.055-0.272,0.079-0.584-0.058c-0.311-0.135-0.669-0.322-0.917-0.388c-0.156-0.049-0.325-0.029-0.466,0.054
			c-0.497,0.181-0.983,0.393-1.454,0.634c-0.452,0.229-0.884,0.497-1.29,0.8c-0.401,0.285-0.754,0.631-1.049,1.025
			c-0.276,0.346-0.779,0.404-1.126,0.129c-0.313-0.25-0.395-0.693-0.188-1.038c0.056-0.078,0.125-0.146,0.201-0.202
			c0.396-0.294,0.744-0.648,1.03-1.05c0.304-0.407,0.571-0.838,0.801-1.29c0.241-0.471,0.454-0.956,0.634-1.453
			c0.082-0.143,0.102-0.313,0.055-0.471c-0.073-0.248-0.264-0.61-0.389-0.917c-0.125-0.308-0.167-0.513-0.059-0.579
			c0.109-0.066,0.172,0,0.342,0.081c0.274,0.147,0.534,0.317,0.778,0.509C161.389,10.42,162.427,11.462,163.312,12.626z"/>
		<path fill="#DB4952" d="M160.009,33.904c-0.244,0.192-0.504,0.363-0.777,0.51c-0.175,0.085-0.287,0.112-0.346,0.081
			c-0.059-0.032-0.074-0.272,0.062-0.579s0.319-0.668,0.39-0.917c0.055-0.155,0.046-0.326-0.027-0.475
			c-0.181-0.498-0.394-0.982-0.639-1.453c-0.229-0.444-0.494-0.868-0.797-1.267c-0.288-0.401-0.639-0.756-1.036-1.05
			c-0.347-0.275-0.404-0.779-0.129-1.124c0.25-0.314,0.693-0.396,1.037-0.189c0.079,0.058,0.146,0.128,0.202,0.207
			c0.295,0.397,0.648,0.747,1.05,1.037c0.407,0.301,0.839,0.567,1.29,0.796c0.471,0.241,0.956,0.453,1.454,0.635
			c0.14,0.083,0.311,0.103,0.466,0.054c0.25-0.074,0.61-0.265,0.918-0.389c0.307-0.125,0.516-0.167,0.583-0.059
			c0.064,0.109,0,0.171-0.086,0.346c-0.147,0.273-0.317,0.534-0.509,0.777C162.221,31.999,161.176,33.028,160.009,33.904z"/>
		<path fill="#DB4952" d="M138.747,30.613c-0.192-0.245-0.362-0.504-0.509-0.778c-0.09-0.171-0.113-0.287-0.086-0.342
			c0.027-0.055,0.272-0.078,0.583,0.059c0.311,0.136,0.668,0.322,0.917,0.388c0.156,0.05,0.326,0.029,0.467-0.053
			c0.497-0.182,0.982-0.393,1.453-0.634c0.453-0.229,0.884-0.497,1.29-0.801c0.402-0.29,0.757-0.64,1.053-1.037
			c0.254-0.366,0.757-0.457,1.124-0.202c0.365,0.254,0.456,0.756,0.202,1.122l0,0c-0.055,0.08-0.124,0.148-0.202,0.202
			c-0.399,0.294-0.749,0.647-1.038,1.05c-0.301,0.407-0.567,0.838-0.796,1.29c-0.242,0.471-0.453,0.956-0.634,1.454
			c-0.085,0.141-0.105,0.312-0.055,0.469c0.074,0.245,0.26,0.61,0.389,0.914c0.128,0.304,0.17,0.517,0.062,0.582
			c-0.108,0.067-0.171,0-0.346-0.081c-0.272-0.148-0.532-0.318-0.777-0.51C140.678,32.819,139.636,31.778,138.747,30.613z"/>
		<path fill="#DB4952" d="M142.039,9.334c0.244-0.191,0.504-0.361,0.777-0.509c0.175-0.085,0.288-0.113,0.346-0.085
			s0.074,0.275-0.058,0.583c-0.132,0.308-0.323,0.668-0.389,0.917c-0.049,0.157-0.029,0.328,0.054,0.47
			c0.181,0.498,0.392,0.982,0.634,1.455c0.229,0.45,0.496,0.882,0.796,1.289c0.29,0.402,0.642,0.757,1.042,1.05
			c0.361,0.256,0.448,0.756,0.192,1.117c-0.255,0.362-0.755,0.448-1.117,0.192c-0.08-0.052-0.149-0.121-0.203-0.202
			c-0.293-0.398-0.649-0.75-1.053-1.038c-0.406-0.3-0.836-0.566-1.286-0.796c-0.471-0.241-0.956-0.453-1.453-0.634
			c-0.144-0.081-0.314-0.1-0.471-0.05c-0.249,0.074-0.61,0.265-0.917,0.389c-0.307,0.124-0.517,0.167-0.583,0.058
			c-0.065-0.109,0-0.171,0.086-0.346c0.148-0.272,0.318-0.532,0.509-0.777C139.834,11.256,140.875,10.219,142.039,9.334z"/>
	</g>
</g>
</svg>
